<?xml version="1.0" encoding="utf-8"?>
<!-- Generator: Adobe Illustrator 27.0.0, SVG Export Plug-In . SVG Version: 6.00 Build 0)  -->
<svg version="1.1" id="Calque_1" xmlns="http://www.w3.org/2000/svg" xmlns:xlink="http://www.w3.org/1999/xlink" x="0px" y="0px"
	 viewBox="0 0 24 24" style="enable-background:new 0 0 24 24;" xml:space="preserve">
<style type="text/css">
	.st0{fill:#FFFFFF;}
</style>
<path class="st0" d="M24,12c0,6.6-5.4,12-12,12S0,18.6,0,12S5.4,0,12,0S24,5.4,24,12z M17.2,4.4c-1.2,0-2.3,0.7-3.1,1.6
	c-0.9,1-1.5,2.2-1.9,3.5C11.5,8.9,11,8.1,9.8,7.8c-1-0.3-2-0.1-2.8,0.5C6.5,8.6,6.2,9.1,6.1,9.6c-0.4,1.2,0.4,2.2,0.7,2.6l0.7,0.8
	c0.2,0.2,0.5,0.6,0.3,1.1c-0.2,0.6-1,1-1.7,0.8c-0.3-0.1-0.8-0.4-0.7-0.7c0-0.1,0.2-0.3,0.2-0.4c0.1-0.1,0.1-0.2,0.1-0.2
	c0.1-0.5-0.1-1.1-0.6-1.2c-0.5-0.1-0.9,0-1.1,0.6c-0.2,0.7,0.1,1.9,1.9,2.4c2,0.6,3.8-0.5,4-1.9c0.2-0.9-0.3-1.6-1-2.4l-0.6-0.7
	c-0.4-0.4-0.5-1-0.1-1.5C8.5,8.4,9,8.2,9.7,8.4c1.1,0.3,1.6,1.1,2.4,1.7c-0.3,1.1-0.6,2.2-0.8,3.2L11.2,14c-0.6,3.1-1,4.8-2.2,5.7
	c-0.2,0.2-0.6,0.4-1.1,0.4c-0.3,0-0.4-0.2-0.4-0.3c0-0.2,0.2-0.3,0.3-0.4c0.2-0.1,0.4-0.2,0.4-0.7c0-0.5-0.5-1-1.1-1
	c-0.5,0-1.2,0.5-1.2,1.3c0,0.9,0.8,1.5,2,1.4c0.6,0,2.1-0.3,3.5-1.9c1.6-1.9,2.1-4.1,2.4-5.7l0.4-2.1c0.2,0,0.4,0,0.7,0
	c2,0,3-1,3.1-1.8c0-0.5-0.3-0.9-0.7-0.9c-0.4,0-0.7,0.3-0.8,0.7c-0.1,0.4,0.6,0.8,0.1,1.2c-0.4,0.3-1.1,0.5-2.2,0.3l0.2-1
	c0.4-2,0.9-4.4,2.7-4.5c0.1,0,0.6,0,0.6,0.3c0,0.1,0,0.1-0.1,0.4c-0.1,0.2-0.2,0.3-0.2,0.5c0,0.5,0.4,0.8,1,0.8c0.7,0,1-0.7,0.9-1.1
	C19.4,5,18.5,4.4,17.2,4.4z"/>
</svg>
