<?xml version="1.0" encoding="utf-8"?>
<!-- Generator: Adobe Illustrator 27.0.0, SVG Export Plug-In . SVG Version: 6.00 Build 0)  -->
<svg version="1.1" id="Calque_1" xmlns="http://www.w3.org/2000/svg" xmlns:xlink="http://www.w3.org/1999/xlink" x="0px" y="0px"
	 viewBox="0 0 522.7 519.9" style="enable-background:new 0 0 522.7 519.9;" xml:space="preserve">
<style type="text/css">
	.st0{fill:#3F3D56;}
	.st1{fill:#FFFFFF;}
	.st2{fill:#FFB7B7;}
	.st3{opacity:0.15;enable-background:new    ;}
	.st4{fill:#E6E6E6;}
	.st5{fill:#CCCCCC;}
	.st6{opacity:0.1;enable-background:new    ;}
</style>
<path class="st0" d="M347.7,519.9H28.5C12.8,519.9,0,507.1,0,491.4V28.5C0,12.8,12.8,0,28.5,0h319.1c15.7,0,28.5,12.8,28.5,28.5
	v462.8C376.2,507.1,363.4,519.9,347.7,519.9z"/>
<path class="st1" d="M348.2,501.7H28c-4.9,0-8.8-3.9-8.8-8.8V27c0-4.9,3.9-8.8,8.8-8.8h320.3c4.9,0,8.8,3.9,8.8,8.8v465.9
	C357,497.7,353.1,501.7,348.2,501.7z"/>
<circle class="st1" cx="186.9" cy="8.7" r="2.4"/>
<path class="st2" d="M273.5,215.2l-10.6-31.8l-0.2-0.6l44.6-28.2l2.4,3.2l12.4,16.7l-4.5,13.5l-11.7,35l-0.5,1.5l21.8,16.2
	c0.9,1.6,1.6,3,2.2,4.4c6.5,14.8-3.1,14.1-3.1,14.1l-44.2-19L273.5,215.2z"/>
<path class="st2" d="M297,221.1l-2-5.8l-9.6-28.7l-2-6l-1.7-5l21.8-13.8l22.8-14.4l14.8,19.9l-4.5,13.4l-2.2,6.5l-3.4,10.1
	l-6.8,20.2l21.8,16.2c1.6,2.9,2.9,6,3.9,9.1c0.4,1.3,0.6,2.7,0.5,4.1c0.1,2.8-2,5.1-4.8,5.3c-0.2,0-0.4,0-0.6,0l-44.2-19L297,221.1z
	"/>
<polygon class="st3" points="294.9,222.4 292.3,195.4 305.1,188.4 305.9,190 294.2,196.4 296.6,221.5 322.7,239.4 321.7,240.8 "/>
<rect x="334.6" y="215.6" transform="matrix(0.5942 -0.8043 0.8043 0.5942 -50.4693 363.9432)" class="st3" width="1.8" height="32.8"/>
<polygon class="st1" points="321.2,248.1 188.4,154.7 54.2,247.2 186.4,303 "/>
<path class="st2" d="M226.1,168.8l44.7-43.7l80-5.4l99.4,94.9l72.4,39.6l-20.4,60l-87.4-41.5c-17.8-1.3-29.3-7.2-36.5-13.4
	c-2.5-2.1-4.7-4.5-6.7-7.2c-2.1-2.8-3.8-5.9-5-9.2l-35.5-45.7l-7.3-9.4l-4.7-6.1l-15.5-19.9l-1.1-1.4l-26.4-0.7l-13.7,18l-9.6,12.6
	c-0.2,4.5-1.8,8.7-4.6,12.2c-8.6,10.5-26.2,8.5-26.2,8.5L226.1,168.8z"/>
<path class="st1" d="M54.7,247.1L54.7,247.1l54.9,23.4l75.1,32c0.6,0.2,1.3,0.3,1.9,0l77.4-32.1l56.2-23.3l0.1,0h0.1
	c1.8,0,3.3,1.5,3.3,3.3v145.3c0,1.8-1.5,3.3-3.3,3.3H54.7c-1.8,0-3.3-1.5-3.3-3.3V250.5C51.4,248.6,52.9,247.1,54.7,247.1z"/>
<path class="st0" d="M54.5,248.1c0.1,0,0.2,0,0.3-0.1l132.1-92c0.8-0.6,1.9-0.6,2.7,0l131.2,92c0.2,0.2,0.5,0.1,0.7-0.1
	s0.1-0.5-0.1-0.7l0,0l-131.2-92c-1.2-0.8-2.7-0.8-3.8,0l-132.1,92c-0.2,0.2-0.3,0.4-0.1,0.7C54.2,248,54.3,248.1,54.5,248.1
	L54.5,248.1z"/>
<polygon class="st4" points="313.4,251.3 188.2,158.5 62,257.9 181.7,328.9 246.7,314.1 "/>
<path class="st1" d="M241.2,372.7h61.8c1.6,0,2.9-1.3,2.9-2.9c0-1.6-1.3-2.9-2.9-2.9h-61.9c-1.6,0-2.9,1.3-2.9,2.9
	C238.3,371.4,239.6,372.7,241.2,372.7L241.2,372.7z"/>
<path class="st1" d="M280.9,360.3h22.2c1.6,0,2.9-1.3,2.9-2.9c0-1.6-1.3-2.9-2.9-2.9h-22.2c-1.6,0-2.9,1.3-2.9,2.9
	C278,359,279.3,360.3,280.9,360.3L280.9,360.3z"/>
<path class="st1" d="M186.4,303c0.5,0,0.9-0.1,1.4-0.3l77.2-32V170.4c0-1.8-1.5-3.3-3.3-3.3H113.5c-1.8,0-3.3,1.5-3.3,3.3v100.4
	l0.1,0.1l74.7,31.9C185.4,302.9,185.9,303,186.4,303z"/>
<path class="st0" d="M184.9,302.9l-75-32V170.4c0-2,1.6-3.6,3.6-3.6h148.1c2,0,3.6,1.6,3.6,3.6v100.4L187.9,303
	C186.9,303.3,185.8,303.3,184.9,302.9z M264.3,170.4c0-1.5-1.2-2.6-2.6-2.6H113.5c-1.5,0-2.6,1.2-2.6,2.6v99.9l74.4,31.8
	c0.7,0.3,1.5,0.3,2.2,0l76.8-31.9L264.3,170.4z"/>
<path class="st0" d="M52.1,250.5v145.3c0,1.8,1.5,3.3,3.3,3.3h265.7c1.8,0,3.3-1.5,3.3-3.3V250.5c0-1.8-1.5-3.3-3.3-3.3H321l-0.1,0
	l-56.2,23.3l-77.4,32.1c-0.6,0.2-1.3,0.2-1.9,0l-75.1-32l-54.9-23.4h-0.1C53.6,247.1,52.1,248.6,52.1,250.5z M53.1,250.5
	c0-1.3,1-2.3,2.3-2.4l55,23.5l74.7,31.9c0.8,0.3,1.8,0.4,2.6,0l77.1-32l56.5-23.4c1.3,0.1,2.3,1.1,2.3,2.4v145.3
	c0,1.3-1.1,2.4-2.4,2.4H55.5c-1.3,0-2.4-1.1-2.4-2.4V250.5z"/>
<path class="st1" d="M126.5,204.6H179c2.1,0,3.8-1.7,3.8-3.8s-1.7-3.8-3.8-3.8l0,0h-52.6c-2.1,0-3.8,1.7-3.8,3.8
	S124.4,204.6,126.5,204.6L126.5,204.6L126.5,204.6z"/>
<path class="st1" d="M126.5,188.3h25.3c2.1,0,3.8-1.7,3.8-3.8s-1.7-3.8-3.8-3.8h-25.3c-2.1,0-3.8,1.7-3.8,3.8
	S124.4,188.3,126.5,188.3z"/>
<path class="st5" d="M148.3,242.8h80.3c2.1,0,3.8-1.7,3.8-3.8s-1.7-3.8-3.8-3.8h-80.3c-2.1,0-3.8,1.7-3.8,3.8
	S146.2,242.8,148.3,242.8z"/>
<path class="st5" d="M148.3,260.5h80.3c2.1,0,3.8-1.7,3.8-3.8c0-2.1-1.7-3.8-3.8-3.8h-80.3c-2.1,0-3.8,1.7-3.8,3.8
	C144.4,258.8,146.2,260.5,148.3,260.5z"/>
<path class="st6" d="M334.5,187.2l15.9-0.9l63.7,78.5l-22.5-3.4l-13.3-2c-2.5-2.1-4.7-4.5-6.7-7.2l-14.8-4.4l-6.8-5
	C350.5,244.4,334.5,187.2,334.5,187.2z"/>
<path class="st2" d="M232.6,184.7c1-6.1,6.7-10.3,12.8-9.4l17,2.4l21,2.9l16.2,2.3l19.4-1.1l17.6-1l10.4-0.6l69.2,85.3l-59.5-17.7
	l-6.8-5l-29.8-22c0,0-9.8-1.8-25.2-5.4c-2.3-0.5-28.2-7.1-40.4-10.6c-2.4-0.7-4.5-1.4-6.4-2.2C234.6,197.2,231.9,190.3,232.6,184.7z
	"/>
<path class="st3" d="M242.4,195.4c0.1,0,6.1-0.8,8.7-5.2c1.7-3,1.6-7-0.5-12l1.6-0.7c2.3,5.5,2.5,10.1,0.4,13.6c-3,5.2-9.7,6-10,6.1
	L242.4,195.4z"/>
<polygon class="st3" points="303.7,183.5 303.7,181.8 334.9,181.7 302,161.1 302.9,159.6 341,183.5 "/>
</svg>
