<?xml version="1.0" encoding="utf-8"?>
<!-- Generator: Adobe Illustrator 27.0.0, SVG Export Plug-In . SVG Version: 6.00 Build 0)  -->
<svg version="1.1" id="Calque_1" xmlns="http://www.w3.org/2000/svg" xmlns:xlink="http://www.w3.org/1999/xlink" x="0px" y="0px"
	 viewBox="0 0 38 38" style="enable-background:new 0 0 38 38;" xml:space="preserve">
<style type="text/css">
	.st0{fill:#FFFFFF;}
	.st1{fill:#3342E8;}
</style>
<rect x="4.4" y="4.2" class="st0" width="29.2" height="30.2"/>
<path class="st1" d="M35.3,0H2.7C1.2,0,0,1.2,0,2.7v32.5C0,36.8,1.2,38,2.7,38h32.6c1.5,0,2.7-1.2,2.7-2.7V2.7C38,1.2,36.8,0,35.3,0
	z M11.5,32.6H5.9V14.4h5.6L11.5,32.6L11.5,32.6z M8.7,12c-1.8,0-3.3-1.5-3.3-3.3s1.5-3.3,3.3-3.3c1.8,0,3.3,1.5,3.3,3.3
	C11.9,10.5,10.5,12,8.7,12z M32.6,32.6H27v-8.8c0-2.1,0-4.8-2.9-4.8c-2.9,0-3.4,2.3-3.4,4.7v9H15V14.4h5.4v2.5h0.1
	c0.8-1.4,2.6-2.9,5.3-2.9c5.7,0,6.8,3.8,6.8,8.6V32.6z"/>
</svg>
