<?xml version="1.0" encoding="utf-8"?>
<!-- Generator: Adobe Illustrator 27.0.0, SVG Export Plug-In . SVG Version: 6.00 Build 0)  -->
<svg version="1.1" id="Calque_1" xmlns="http://www.w3.org/2000/svg" xmlns:xlink="http://www.w3.org/1999/xlink" x="0px" y="0px"
	 viewBox="0 0 38 38" style="enable-background:new 0 0 38 38;" xml:space="preserve">
<style type="text/css">
	.st0{fill:#FFFFFF;stroke:#000000;stroke-miterlimit:10;}
	.st1{fill:#3342E8;}
</style>
<rect x="3.5" y="4.4" class="st0" width="31" height="30.1"/>
<path class="st1" d="M33.9,0H4.1C1.8,0,0,1.8,0,4.1v29.9C0,36.2,1.8,38,4.1,38h29.9c2.2,0,4.1-1.8,4.1-4.1V4.1C38,1.8,36.2,0,33.9,0
	z M23.5,32.5c-0.7,0.1-1-0.3-1-0.7c0-0.5,0-2.8,0-4.7c0-1.3-0.4-2.2-1-2.6c3.1-0.3,6.4-0.8,6.4-6.2c0-1.5-0.6-2.3-1.5-3.3
	c0.1-0.4,0.6-1.9-0.1-3.8c-1.2-0.4-3.9,1.5-3.9,1.5c-1.1-0.3-2.3-0.5-3.5-0.5c-1.2,0-2.4,0.2-3.5,0.5c0,0-2.7-1.9-3.9-1.5
	c-0.8,1.9-0.3,3.4-0.1,3.8c-0.9,1-1.3,1.8-1.3,3.3c0,5.4,3.2,5.9,6.3,6.2c-0.4,0.4-0.8,1-0.9,1.9c-0.8,0.4-2.9,1-4.1-1.2
	c-0.8-1.3-2.2-1.5-2.2-1.5c-1.4,0-0.1,0.9-0.1,0.9c0.9,0.4,1.6,2.1,1.6,2.1c0.8,2.5,4.8,1.7,4.8,1.7c0,1.2,0,3.1,0,3.4
	c0,0.4-0.3,0.8-1,0.7C9,30.7,5.1,25.3,5.1,19.1c0-7.8,6-13.7,13.7-13.7s14.1,5.9,14.1,13.7C32.9,25.3,29.1,30.7,23.5,32.5z
	 M15.2,27.4c-0.2,0-0.3,0-0.3-0.1c0-0.1,0.1-0.2,0.3-0.3c0.2,0,0.3,0.1,0.3,0.2C15.5,27.2,15.4,27.3,15.2,27.4L15.2,27.4z
	 M14.4,27.3c0,0.1-0.1,0.2-0.3,0.2c-0.2,0-0.3-0.1-0.3-0.2c0-0.1,0.1-0.2,0.3-0.2C14.2,27.1,14.4,27.2,14.4,27.3z M13.2,27.2
	c0,0.1-0.2,0.2-0.3,0.1c-0.2,0-0.3-0.2-0.2-0.3c0-0.1,0.2-0.2,0.3-0.1C13.2,27,13.3,27.1,13.2,27.2L13.2,27.2z M12.2,26.7
	c-0.1,0.1-0.2,0.1-0.4-0.1c-0.1-0.1-0.2-0.3-0.1-0.3c0.1-0.1,0.2-0.1,0.4,0.1C12.2,26.5,12.3,26.7,12.2,26.7z M11.4,26
	c-0.1,0.1-0.2,0-0.3-0.1c-0.1-0.1-0.1-0.3,0-0.3c0.1-0.1,0.2,0,0.3,0.1C11.5,25.7,11.5,25.9,11.4,26z M10.9,25.1
	c-0.1,0.1-0.2,0-0.3-0.1c-0.1-0.1-0.1-0.2,0-0.3c0.1-0.1,0.2,0,0.3,0.1C10.9,25,10.9,25.1,10.9,25.1z M10.3,24.5
	c0,0.1-0.1,0.1-0.2,0c-0.1-0.1-0.2-0.1-0.1-0.2c0-0.1,0.1-0.1,0.2,0C10.3,24.4,10.3,24.4,10.3,24.5z"/>
</svg>
